<?xml version="1.0" encoding="UTF-8"?>
<svg width="1153px" height="210px" viewBox="0 0 1153 210" version="1.1" xmlns="http://www.w3.org/2000/svg" xmlns:xlink="http://www.w3.org/1999/xlink">
    <!-- Generator: Sketch 59.1 (86144) - https://sketch.com -->
    <title>iNaturalist_Header</title>
    <desc>Created with Sketch.</desc>
    <g id="iNaturalist_Header" stroke="none" stroke-width="1" fill="none" fill-rule="evenodd">
        <g id="iNaturalist-Wordmark" fill-rule="nonzero">
            <path d="M41.3,77.6285714 L41.3,209 L5.9,209 L5.9,80.4732283 L41.3,77.6285714 Z M32.0676903,2.47172875 C43.693401,-0.864639334 57.6486766,-0.209738279 59,0.898039331 L58.7172226,1.13823135 C55.5650769,3.7502206 48.1833148,8.11621016 47.8686171,29.2014886 L47.8610961,29.8658629 C47.7624235,42.5887346 41.3534011,51.1131524 33.9701837,55.4526059 C26.500105,59.8431118 5.78445601,61.9542481 0,59.2744623 C3.69451863,56.0783303 5.09922748,45.297062 5.86633739,37.8703258 L6.16335886,34.9051686 L6.26717764,33.950136 C7.46982901,23.5073264 11.520005,8.36854173 32.0676903,2.47172875 Z" id="i" fill="#74AC00"></path>
            <path d="M880.35161,11 L880.35161,209.128571 L848,209.128571 L848,13.8267371 L880.35161,11 Z M699.169917,78.0686972 L697.110467,106.485618 C691.44698,105.19394 687.32808,104.677269 682.95175,104.677269 C673.684226,104.677269 664.159271,108.035632 656.178903,119.660736 L656.178903,209.044869 L624,209.044869 L624,79.6187111 L654.03487,76.0874077 L654.119453,89.9439566 C661.481532,76.0874077 677.864189,76.0874077 685.526062,76.0020121 C689.129985,75.9618444 694.793586,76.5186834 699.169917,78.0686972 Z M598.13367,75 L598.13367,205.134615 L569.222326,207.969231 L568.198916,194.439906 C556.685549,208.097598 542.613656,209 527.774205,209 C497.583598,209 483,189.415385 483,156.173077 L483,78.0923077 L514.981575,75 L514.981575,149.988462 C514.981575,171.634615 522.4013,180.190192 538.520014,180.190192 C546.96315,180.190192 566.071653,172.386617 566.071653,154.079926 L566.152095,78.0923077 L598.13367,75 Z M303.392078,74 C340.337641,74 354.961926,90.1640684 354.961926,124.544785 L354.964753,171.573442 C355.016506,183.265722 355.893647,187.387275 369.842777,186.914412 L368.816512,206.904563 L368.305691,207.024879 C362.280766,208.368325 339.743274,211.039094 328.022453,197.298851 C316.733531,208.33147 303.392078,208.957143 288.511227,208.957143 C265.676816,208.957143 249,195.615372 249,173.293563 C249,153.024335 262.854586,128.46089 323.660824,127.947745 L323.660824,123.842585 L323.656105,122.763626 C323.500316,105.369256 319.406953,99.1441065 299.543582,99.1441065 C289.024359,99.1441065 275.939473,101.453259 258.749523,108.380717 L256.696992,85.2891907 C270.038445,77.8485877 289.280926,74 303.392078,74 Z M763.392078,74 C800.337641,74 814.961926,90.1640684 814.961926,124.544785 L814.964753,171.573442 C815.016506,183.265722 815.893647,187.387275 829.842777,186.914412 L828.816512,206.904563 L828.305691,207.024879 C822.280766,208.368325 799.743274,211.039094 788.022453,197.298851 C776.733531,208.33147 763.392078,208.957143 748.511227,208.957143 C725.676816,208.957143 709,195.615372 709,173.293563 C709,153.024335 722.854586,128.46089 783.660824,127.947745 L783.660824,123.842585 C783.660824,105.625936 779.812328,99.1441065 759.543582,99.1441065 C749.024359,99.1441065 735.939473,101.453259 718.749523,108.380717 L716.696992,85.2891907 C730.038445,77.8485877 749.280926,74 763.392078,74 Z M1012.16242,74 C1022.34768,74 1036.86168,75.8028626 1047.30157,80.1812432 L1045.26452,103.618457 C1032.27831,99.4976281 1021.58378,98.2098691 1013.69021,98.2098691 C998.313007,98.2098691 992.668818,105.025385 992.557472,112.158959 L992.555787,112.375218 C992.555787,119.071565 995.611366,123.192394 1010.38,127.570774 L1022.34768,130.918948 C1045.26452,137.357743 1052.3942,151.007988 1052.3942,166.461096 C1052.3942,186.035033 1038.38947,208.957143 1000.19473,208.957143 C988.736314,208.957143 974.98621,206.381625 962.763895,201.230589 L962.254632,176.505616 C978.29642,182.686859 988.481682,184.23217 997.90305,184.23217 C1014.4541,184.23217 1020.56526,175.990513 1020.56526,168.263959 L1020.56212,167.893704 L1020.55207,167.517024 C1020.3378,161.625965 1017.38088,156.218797 1002.23179,151.523092 L990.009472,148.174918 C970.14821,142.508779 962.254632,131.691603 962,114.435632 C962,93.0588332 977.277894,74 1012.16242,74 Z M107.707557,26 L197.383161,157.832274 L197.383161,26 L228.703755,26 L228.703755,208.814286 L192.25272,208.814286 L102.577115,76.2095573 L102.577115,208.814286 L71,208.814286 L71,26 L107.707557,26 Z M939.354124,77.5460488 L939.354124,208.428571 L907.125291,208.428571 L907.125291,80.3801192 L939.354124,77.5460488 Z M423.447708,38 L423.491351,79.0957058 L459.477038,79.0957058 L458.20095,103.768607 L423.491351,103.768607 L423.491351,160.310673 C423.491351,177.273292 431.913533,181.899461 442.632674,181.899461 C447.481809,181.899461 453.607032,181.128433 462.53965,178.044321 L462.284432,201.946194 C452.586162,206.315353 442.122239,208.371429 434.210492,208.371429 C410.985687,208.371429 391.589146,199.3761 391.589146,163.651795 L391.589146,103.768607 L375,103.768607 L375,81.4087903 L392.354799,78.8386964 L392.138481,40.8662757 L423.447708,38 Z M1113.68395,38 L1113.49135,79.0957058 L1149.47704,79.0957058 L1148.20095,103.768607 L1113.49135,103.768607 L1113.49135,160.310673 C1113.49135,177.273292 1121.91353,181.899461 1132.63267,181.899461 C1137.48181,181.899461 1143.60703,181.128433 1152.53965,178.044321 L1152.28443,201.946194 C1142.58616,206.315353 1132.12224,208.371429 1124.21049,208.371429 C1100.98569,208.371429 1081.58915,199.3761 1081.58915,163.651795 L1081.58915,103.768607 L1065,103.768607 L1065,81.4087903 L1082.3548,78.8386964 L1082.37472,40.8662757 L1113.68395,38 Z M280.156127,169.958121 C280.156127,178.938159 287.339987,185.609044 300.168307,185.609044 C309.661264,185.609044 317.871389,182.530174 325.568381,175.859288 L325.568381,149.432319 C289.905651,148.662602 280.156127,159.438647 280.156127,169.958121 Z M740.156127,169.958121 C740.156127,178.938159 747.339987,185.609044 760.168307,185.609044 C769.661264,185.609044 777.871389,182.530174 785.568381,175.859288 L785.568381,149.432319 C749.905651,148.662602 740.156127,159.438647 740.156127,169.958121 Z M923.110792,17 C935.486664,17 942.963753,25.2445684 942.963753,36.3232071 C942.963753,47.6594886 934.713172,55.3887714 922.852961,55.3887714 C910.219259,55.3887714 903,47.144203 903,36.0655643 C903,24.9869256 911.250581,17 923.110792,17 Z" id="Combined-Shape" fill="#000000"></path>
        </g>
    </g>
</svg>