<svg height="103" viewBox="0 0 912 103" width="912" xmlns="http://www.w3.org/2000/svg"><g fill="#0066b1"><path d="m272.2 49.3c.101742 5.3570484-.81448 10.6847101-2.7 15.7-1.607584 4.2165988-4.057407 8.0614596-7.2 11.3-3.099674 3.0271688-6.818262 5.347022-10.9 6.8-4.400618 1.548042-9.035111 2.3260955-13.7 2.3006353-4.565675.008736-9.098769-.7693324-13.4-2.3006353-4.111793-1.4517919-7.863276-3.7708902-11-6.8-3.238312-3.2007345-5.760533-7.0522343-7.4-11.3-1.893341-5.0131647-2.809824-10.342342-2.7-15.7-.120594-5.3350244.831569-10.6399288 2.8-15.6 1.735415-4.251281 4.282925-8.1234954 7.5-11.4 3.121784-3.0719041 6.875554-5.4265416 11-6.9 4.234368-1.5224198 8.700263-2.3000837 13.2-2.3000837 4.565675-.0092876 9.098769.7687808 13.4 2.3000837 4.136137 1.4492643 7.894909 3.807039 11 6.9 3.218368 3.2555233 5.736668 7.1350673 7.4 11.4 1.885773 4.9804613 2.802216 10.2754637 2.7 15.6zm-52.9 0c-.041212 3.1082261.362889 6.2063378 1.2 9.2.707719 2.5553426 1.933069 4.9379664 3.6 7 1.530778 1.9572349 3.523793 3.5035402 5.8 4.5 4.981136 2.1336262 10.618864 2.1336262 15.6 0 2.235803-1.0632479 4.214568-2.5984965 5.8-4.5 1.647411-2.0746902 2.870631-4.4531737 3.6-7 1.599846-6.0290056 1.599846-12.3709944 0-18.4-.707485-2.5857764-1.932183-5.0011528-3.6-7.1-1.530778-1.9572349-3.523793-3.5035402-5.8-4.5-2.46132-1.0671776-5.117311-1.6119963-7.8-1.6-2.69969-.0774761-5.377399.506127-7.8 1.7-2.261683 1.0663733-4.246579 2.6406008-5.8 4.6-1.667817 2.0988472-2.892515 4.5142236-3.6 7.1-.837705 2.9252301-1.242004 5.9574754-1.2 9z"/><path d="m328.6 57.7c.070348 3.8843054-.57368 7.7484726-1.9 11.4-1.12374 3.245854-2.931118 6.2126807-5.3 8.7-2.421275 2.450944-5.359493 4.3300369-8.6 5.5-3.71223 1.3689228-7.643686 2.0467601-11.6 2-1.8 0-3.7-.1-5.7-.2l-5.8-.6c-1.9-.3-3.7-.6-5.5-1s-3.3-.8-4.6-1.2v-73.5l14.9-2.4v26.2c1.680947-.7158801 3.420794-1.2846765 5.2-1.7 1.905364-.4128206 3.850478-.6140393 5.8-.6 3.404507-.0431165 6.779225.6386447 9.9 2 2.793215 1.2515689 5.257866 3.134289 7.2 5.5 2.013403 2.5894879 3.507457 5.54364 4.4 8.7 1.125939 3.6244029 1.666068 7.4053104 1.6 11.2zm-15.2-.4c0-9.6-3.5-14.4-10.6-14.4-1.519766.00262-3.03264.2043365-4.5.6-1.272779.303389-2.488359.8098803-3.6 1.5v27.1c.7.1 1.7.2 2.8.4s2.4.1 3.7.1c4.1 0 7.1-1.4 9.2-4.2s3-6.5 3-11.1z"/><path d="m352.2 73.3c1.966548.1029934 3.934763-.1684846 5.8-.8 1.149849-.585823 1.824193-1.815509 1.7-3.1 0-1.2-.7-2.2-2.2-3.2-2.138894-1.1988097-4.381257-2.2028529-6.7-3-2.3-.9-4.5-1.8-6.4-2.7-1.777942-.8156511-3.401774-1.9320357-4.8-3.3-1.346236-1.3362527-2.40166-2.9364116-3.1-4.7-.763689-2.0804738-1.136609-4.2840911-1.1-6.5-.17643-4.5619514 1.87467-8.9252009 5.5-11.7 3.7-2.9 8.7-4.3 15.1-4.3 3.083818.0049866 6.161608.2726205 9.2.8 2.38356.4311663 4.72555 1.0668493 7 1.9l-2.6 11.6c-1.871049-.6315569-3.773606-1.1656081-5.7-1.6-2.230262-.5059836-4.513429-.7410155-6.8-.7-4.7 0-7 1.3-7 3.9-.006609.5479087.095352 1.0917021.3 1.6.256492.5466296.675603 1.0006666 1.2 1.3.792871.5355059 1.629116 1.0038027 2.5 1.4 1.295941.6509017 2.631972 1.2187146 4 1.7 2.795153.973321 5.504495 2.177473 8.1 3.6 1.86876.9760706 3.559209 2.260812 5 3.8 1.163662 1.3075849 2.048364 2.8387996 2.6 4.5.54526 1.8845765.814723 3.8381845.8 5.8 0 5.2-2 9.1-5.9 11.8s-9.4 4-16.5 4c-3.934289.0773056-7.863315-.3256714-11.7-1.2-2.174827-.5258035-4.312763-1.1939087-6.4-2l2.5-12.1c2.530865 1.0094883 5.13941 1.8121178 7.8 2.4 2.568736.5134902 5.180509.7813643 7.8.8z"/><path d="m382.4 58.1c-.107452-4.2066981.641024-8.3913622 2.2-12.3 1.278985-3.2684009 3.180901-6.257126 5.6-8.8 2.278966-2.291746 5.001002-4.0950952 8-5.3 2.990482-1.1918825 6.180752-1.8027854 9.4-1.8000095 7.5 0 13.4 2.3000095 17.7 6.8000095s6.5 11.3 6.5 20.1999905c.014879.9344419-.018498 1.8690193-.1 2.8000095-.1 1-.1 2-.2 2.8h-33.8c.258755 2.9573962 1.83886 5.6398991 4.3 7.3 2.5 1.8 5.9 2.7 10.2 2.7 2.688316.0361889 5.372084-.2321878 8-.8 2.219809-.3882505 4.396685-.9910778 6.5-1.8000095l2 12.1000095c-1.033937.4823712-2.103831.8835814-3.2 1.2-1.434916.4602113-2.907126.7948043-4.4 1-1.6.3-3.4.6-5.2.8-1.859993.1996411-3.729323.2997838-5.6.3-4.196239.0885701-8.370854-.6241689-12.3-2.1-3.301472-1.2501978-6.276174-3.2333327-8.7-5.8000095-2.320212-2.4503484-4.062776-5.3887908-5.1-8.5999905-1.23659-3.4299208-1.846293-7.054267-1.8-10.7zm35-5.7c-.078449-1.2576581-.3136-2.5006029-.7-3.7-.343858-1.1708894-.922245-2.2596186-1.7-3.2-.807064-.9488246-1.79231-1.7302265-2.9-2.3-2.741028-1.2002716-5.858972-1.2002716-8.6 0-1.132319.5333394-2.150973 1.2803525-3 2.2-.809813.9342573-1.42211 2.0227861-1.8 3.2-.438609 1.2365977-.773106 2.5076877-1 3.8z"/><path d="m473.7 44.6c-1.3-.3-2.9-.7-4.7-1-1.909297-.3778029-3.854214-.5454682-5.8-.5-.9 0-2 .1-3.4.2-.976149.1060218-1.944707.2730147-2.9.5v40.2h-14.9v-49.8c2.7-.9 5.8-1.8 9.5-2.7 3.97828-.8350325 8.035201-1.2373717 12.1-1.2.970774-.0232748 1.941612.0436795 2.9.2 1.1.1 2.3.2 3.4.4l3.4.6c.988315.1808518 1.958745.4485566 2.9.8z"/><path d="m499.1 84c-3.4-6.7-6.9-14.5-10.4-23.4s-6.8-18.7-10-29.2h15.8c.7 2.6 1.5 5.4 2.4 8.4s1.8 6.1 2.8 9.2 1.9 6.1 2.9 9.1 1.9 5.6 2.9 8c.9-2.4 1.8-5.1 2.8-8s2-5.9 3-9.1 1.9-6.2 2.8-9.2 1.7-5.8 2.4-8.4h15.4c-3.1 10.5-6.5 20.3-10 29.2s-7 16.7-10.4 23.4z"/><path d="m556.1 30c3.723735-.0995764 7.438884.4070348 11 1.5 5.285634 1.5696292 9.375744 5.7733537 10.8 11.1.746783 2.9072252 1.116483 5.8984386 1.1 8.9v31c-2.1.5-5.1 1-8.9 1.7-4.570186.652749-9.183745.9536333-13.8.9-3.090159.0328624-6.174795-.2688955-9.2-.9-2.546277-.5060355-4.962339-1.5269064-7.1-3-1.940624-1.3672941-3.519376-3.186291-4.6-5.3-1.153732-2.5395582-1.701474-5.3124999-1.6-8.1-.09238-2.7126669.528265-5.4021289 1.8-7.8 1.210565-2.0939544 2.930425-3.8482116 5-5.1 2.189331-1.3320848 4.590755-2.279125 7.1-2.8 2.724815-.6063583 5.508546-.9082086 8.3-.9 1.9 0 3.6.1 5.1.2 1.249442.1382225 2.486416.3722446 3.7.7v-1.4c.088092-2.2604248-.741426-4.4604491-2.3-6.1-1.5-1.5-4.2-2.3-8-2.3-2.507723.0172453-5.01218.1842091-7.5.5-2.170461.3257173-4.310846.82737-6.4 1.5l-1.9-12c.9-.3 1.9-.5 3.2-.8s2.7-.6 4.2-.8 3.1-.4 4.8-.6c1.8 0 3.5-.1 5.2-.1zm1.2 43.6c1.5 0 2.9 0 4.2-.1s2.4-.2 3.2-.3v-11.3c-.6-.1-1.5-.3-2.7-.4s-2.3-.2-3.3-.2c-1.4 0-2.7.1-4 .2-1.115341.1508782-2.197209.4889618-3.2 1-.881512.4381457-1.638206 1.091654-2.2 1.9-.545621.903962-.823067 1.9443878-.8 3 0 2.3.8 3.9 2.4 4.8 1.5 1 3.7 1.4 6.4 1.4z"/><path d="m589.6 18.3 14.9-2.4v15.5h17.9v12.4h-17.9v18.5c-.129707 2.5967417.421871 5.1822635 1.6 7.5 1.1 1.9 3.3 2.8 6.7 2.8 1.674973.0081365 3.347624-.1256756 5-.4 1.564579-.2688738 3.103457-.6703203 4.6-1.2l2.1 11.6c-1.950156.7811336-3.955683 1.4162168-6 1.9-2.662226.5646262-5.378757.8329255-8.1.8-3.448317.1428634-6.888453-.4361694-10.1-1.7-2.497999-.9489378-4.704349-2.5347518-6.4-4.6-1.65153-2.1067101-2.782214-4.5736568-3.3-7.2-.661478-3.055881-.99669-6.1733482-1-9.3z"/><path d="m650.3 16.2c.096879 2.4377783-.84862 4.8015255-2.6 6.5-1.699924 1.5256531-3.916348 2.347875-6.2 2.3-2.281296.0340348-4.492836-.7863754-6.2-2.3-1.836207-1.6471888-2.828734-4.036605-2.7-6.5-.10731-2.4596535.881563-4.8402721 2.7-6.5 1.691835-1.53899541 3.913778-2.36326463 6.2-2.3 2.281296-.03403478 4.492836.78637545 6.2 2.3 1.75138 1.6984745 2.696879 4.0622217 2.6 6.5zm-1.4 67.8h-14.9v-52.6h14.9z"/><path d="m710.6 57.6c.036273 3.8735207-.572028 7.7260969-1.8 11.4-1.086728 3.2702402-2.859635 6.2705453-5.2 8.8-2.324838 2.4290262-5.113131 4.3672296-8.2 5.7-6.815094 2.6666667-14.384906 2.6666667-21.2 0-3.11056-1.2367981-5.885651-3.1896397-8.1-5.7-2.337162-2.549549-4.139354-5.5418677-5.3-8.8-2.568198-7.3546809-2.532896-15.3682315.1-22.7 1.196479-3.2337039 3.033127-6.192748 5.4-8.7 2.302855-2.4298973 5.0987-4.3392547 8.2-5.6 3.301696-1.3431417 6.835634-2.0227451 10.4-2 3.565239-.032288 7.101034.6476726 10.4 2 3.1013 1.2607453 5.897145 3.1701027 8.2 5.6 2.33584 2.5124943 4.138734 5.4719608 5.3 8.7 1.23595 3.6374644 1.844619 7.4585511 1.8 11.3zm-15.2 0c0-4.6-.9-8.2-2.8-10.9-1.82486-2.5140553-4.74346-4.001974-7.85-4.001974s-6.02514 1.4879187-7.85 4.001974c-1.9 2.6-2.8 6.3-2.8 10.9s.9 8.2 2.8 11c1.749929 2.6261583 4.747502 4.1439167 7.9 4 3.128122.1569523 6.102041-1.3681341 7.8-4 1.9-2.7 2.8-6.4 2.8-11z"/><path d="m719.3 33.2c3.22343-.8633263 6.496053-1.5312085 9.8-2 4.169206-.6469069 8.380947-.981172 12.6-1 3.781545-.1228021 7.551049.4884688 11.1 1.8 2.746021.9964022 5.166856 2.7255697 7 5 1.780041 2.228634 3.043709 4.8242773 3.7 7.6.750229 3.2121369 1.119441 6.5014716 1.1 9.8v29.6h-14.9v-27.9c0-4.8-.6-8.2-1.9-10.2s-3.6-3-7.1-3c-1.1 0-2.2 0-3.4.1-1.074083.0652004-2.142917.1988047-3.2.4v40.6h-14.9v-50.8z"/><path d="m783.1 80.9c.038807 1.0271509-.319289 2.02982-1 2.8-.768969.7694267-1.81219 1.2017247-2.9 1.2017247s-2.131031-.432298-2.9-1.2017247c-1.333333-1.6285714-1.333333-3.9714286 0-5.6.768969-.7694267 1.81219-1.2017247 2.9-1.2017247s2.131031.432298 2.9 1.2017247c.637477.7950177.989621 1.7810187 1 2.8z"/><path d="m830.6 58.2c.053426 3.7767698-.555799 7.5336562-1.8 11.1-1.063046 3.1259233-2.727674 6.0135434-4.9 8.5-6.736518 7.3323936-17.401934 9.5459705-26.5 5.5-2.842127-1.2651085-5.369176-3.14332-7.4-5.5-2.172326-2.4864566-3.836954-5.3740767-4.9-8.5-2.40036-7.205347-2.40036-14.994653 0-22.2 1.063046-3.1259233 2.727674-6.0135434 4.9-8.5 2.050495-2.3354394 4.57254-4.2099324 7.4-5.5 6.052566-2.6669759 12.947434-2.6669759 19 0 2.872156 1.2627579 5.432329 3.1402181 7.5 5.5 2.15165 2.5011729 3.813857 5.3845933 4.9 8.5 1.228132 3.5703978 1.836899 7.3244621 1.8 11.1zm-6.9 0c0-6.5-1.5-11.6-4.5-15.5-2.901059-3.7781408-7.438467-5.9352691-12.2-5.8-4.771019-.1808218-9.32828 1.9857445-12.2 5.8-3 3.8-4.5 9-4.5 15.5s1.5 11.6 4.5 15.4c3.022915 3.6113407 7.490457 5.6978455 12.2 5.6978455s9.177085-2.0865048 12.2-5.6978455c3-3.8 4.5-8.9 4.5-15.4z"/><path d="m857.3 31.3c2.010016.0090879 4.016204.1762702 6 .5 1.363565.1979941 2.703681.5330231 4 1l-1.3 5.6c-1.018488-.4505144-2.09599-.7535619-3.2-.9-2.147383-.3604788-4.322748-.5278145-6.5-.5-2.281661-.0455078-4.561561.1556598-6.8.6-1.162665.223999-2.301199.5588619-3.4 1v45.4h-6.5v-49.3c2.240476-.9083729 4.547219-1.643856 6.9-2.2 3.533553-.8620038 7.163411-1.2653214 10.8-1.2z"/><path d="m905.3 78c-.4.3-1 .7-1.8 1.2-.94653.5475571-1.95322.9837895-3 1.3-1.305701.4869124-2.641895.8877706-4 1.2-1.64988.2941659-3.324337.4281224-5 .4-2.955311-.0095401-5.890889-.4819321-8.7-1.4-2.737806-.8890922-5.235182-2.3943594-7.3-4.4-2.237588-2.1863887-3.94754-4.8539141-5-7.8-2.465746-7.0119749-2.536085-14.6437686-.2-21.7 1.077132-2.9774767 2.705526-5.7253926 4.8-8.1 2.154006-2.3264547 4.778935-4.1673144 7.7-5.4 3.228863-1.3525525 6.699448-2.0330594 10.2-2 3.858986-.1083774 7.717642.2271579 11.5 1 2.9.6 5.3 1.2 7.2 1.8v47.2c0 7.7-2 13.2-6 16.5s-10 5-18.1 5c-3.02008.058916-6.037663-.209313-9-.8-2.365377-.46766-4.702437-1.068618-7-1.8l1.3-5.9c2.08875.8745453 4.269067 1.5118687 6.5 1.9 2.737247.5138389 5.515002.7815744 8.3.8 6.1 0 10.6-1.2 13.4-3.5s4.1-6.4 4.1-12.1v-3.4zm-.1-39.4c-1.1-.3-2.6-.6-4.4-.9-2.549572-.3684418-5.12419-.5356248-7.7-.5-2.54747-.055941-5.075395.4564761-7.4 1.5-2.140146.9474361-4.050376 2.3459975-5.6 4.1-1.551291 1.8620198-2.73859 3.9991574-3.5 6.3-1.665947 5.5208383-1.596133 11.420133.2 16.9.825834 2.2243106 2.083276 4.2634048 3.7 6 1.433656 1.4893675 3.173793 2.6494589 5.1 3.4 1.892066.6795759 3.889675 1.0181537 5.9 1 2.722952.0485698 5.432534-.3917372 8-1.3 2.04011-.7075362 3.961752-1.7189262 5.7-3z"/><path d="m122.87 5.71c-3.660394.05506647-7.258081.95876709-10.51 2.64-4.138266 2.6573087-8.099907 5.5801045-11.86 8.75-5-8.11-16.43-16.58-28.33-16.58-5 0-11 .92-18.3 6.8-7.13 5.23-45.4 38.2-45.4 38.2-4.9428036 4.7226607-7.65653184 11.3162574-7.47 18.15 0 12.83 10.83 27.75 27.39 27.75 2.5957933-.0736911 5.156922-.6157289 7.56-1.6.8-.3 16.87-7.78 16.87-7.78 4 6.39 12.38 11.28 19.71 11.28 2.380942.0911895 4.757259-.2754423 7-1.08 1.92-.77 50.66-21.29 50.66-21.29 4.73-2 11.63-4.72 14.44-6.45 5.77-3.3 11.52-12.13 11.52-22.35-.02-20.02-15.52-36.44-33.28-36.44zm-43.87 52.29c-12.85 0-25.67-12.77-25.67-28.41 0-7.81 5.08-20.76 19.45-20.76 12.85 0 26.43 11.47 26.43 28.86-.05 12.66-8.89 20.31-20.21 20.31zm53.2.72c-13.74 0-24-12.39-24-26.5 0-5.45 3.31-17.4 16.27-17.4 11.31 0 23.23 11.15 23.23 27-.03 9.96-7.79 16.9-15.55 16.9z"/></g></svg>
